 
<!-- Generator: Adobe Illustrator 26.0.1, SVG Export Plug-In . SVG Version: 6.00 Build 0)  -->
<svg version="1.1" xmlns="http://www.w3.org/2000/svg"  x="0px" y="0px"
	 viewBox="0 0 48 52" style="enable-background:new 0 0 48 52;">
<style type="text/css">
	.st0{display:none;}
	.st1{display:inline;fill:#111824;}
	.st2{display:inline;}
	.st3{fill:#425D8C;stroke:#98ACCF;}
	.st4{fill:#4080A3;stroke:#98ACCF;}
	.st5{display:inline;fill:#425D8C;stroke:#98ACCF;}
	.st6{display:inline;opacity:0.5;}
	.st7{fill:#98ACCF;}
</style>
<g id="bg" class="st0">
	<rect class="st1" width="48" height="52"/>
</g>
<g id="icn-library" class="st0">
	<g class="st2">
		<rect x="16.4" y="15.73" class="st3" width="16" height="20"/>
		<g>
			<line class="st4" x1="29.4" y1="23.73" x2="19.4" y2="23.73"/>
			<line class="st4" x1="19.4" y1="19.73" x2="29.4" y2="19.73"/>
			<line class="st4" x1="29.4" y1="31.73" x2="19.4" y2="31.73"/>
			<line class="st4" x1="19.4" y1="27.73" x2="29.4" y2="27.73"/>
		</g>
	</g>
</g>
<g id="icn-core" class="st0">
	<circle class="st5" cx="24.4" cy="25.73" r="9"/>
</g>
<g id="icn-elements" class="st0">
	<g class="st6">
		<rect x="15.95" y="27.23" class="st3" width="7" height="8"/>
	</g>
	<g class="st6">
		<rect x="25.85" y="27.23" class="st3" width="7" height="8"/>
	</g>
	<g class="st2">
		<rect x="15.95" y="16.23" class="st3" width="7" height="8"/>
	</g>
</g>
<g id="icn-components" class="st0">
	<g class="st2">
		<rect x="15.95" y="27.23" class="st3" width="7" height="8"/>
	</g>
	<g class="st2">
		<rect x="25.85" y="27.23" class="st3" width="7" height="8"/>
	</g>
	<g class="st2">
		<rect x="15.95" y="16.23" class="st3" width="7" height="8"/>
	</g>
</g>
<g id="icn-code">
	<g>
		<path class="st7" d="M16.14,25.88l4.28,1.73v1.34l-5.59-2.59v-1l5.59-2.58v1.34L16.14,25.88z"/>
		<path class="st7" d="M22.66,31.14h-1.09l4.16-10.81h1.08L22.66,31.14z"/>
		<path class="st7" d="M32.66,25.84l-4.52-1.77v-1.3l5.84,2.58v1l-5.84,2.59v-1.31L32.66,25.84z"/>
	</g>
</g>
</svg>
