  <svg version="1.1" id="icn-sass" xmlns="http://www.w3.org/2000/svg"  x="0px" y="0px"
	 viewBox="0 0 48 52" style="enable-background:new 0 0 48 52;">
<style type="text/css">
	.st-css-0{fill:#425d8c;stroke:#98ACCF;}
	.st-css-1{fill:#FFFFFF;}
</style>
<rect x="16.4" y="15.7" class="icn-ds-shape" width="16" height="20"/>
<path class="icn-ds-shape-b" d="M29.7,21.2c-0.4-1.4-2.7-1.9-4.9-1.1c-1.3,0.5-2.7,1.2-3.8,2.2c-1.2,1.1-1.4,2.1-1.3,2.5
	c0.3,1.5,2.3,2.4,3.1,3.1v0c-0.2,0.1-2,1-2.4,1.9c-0.4,1,0.1,1.7,0.4,1.8c1,0.3,2.1-0.2,2.7-1.1c0.6-0.8,0.5-1.9,0.3-2.4
	c0.3-0.1,0.7-0.1,1.2-0.1c1.4,0.2,1.7,1,1.6,1.4c-0.1,0.4-0.3,0.6-0.4,0.6C26,30.1,26,30.2,26,30.2c0,0.1,0.1,0.1,0.1,0.1
	c0.1,0,0.7-0.3,0.8-1c0-0.9-0.8-1.8-2.2-1.8c-0.6,0-1,0.1-1.2,0.2c0,0,0-0.1-0.1-0.1c-0.9-1-2.6-1.6-2.5-2.9c0-0.5,0.2-1.7,3.2-3.2
	c2.5-1.2,4.4-0.9,4.7-0.1c0.5,1.1-1,3-3.6,3.3c-1,0.1-1.5-0.3-1.6-0.4c-0.1-0.1-0.2-0.2-0.2-0.1c-0.1,0,0,0.2,0,0.2
	c0.1,0.2,0.4,0.5,0.9,0.7c0.5,0.1,1.6,0.2,3-0.3C28.8,24.2,30,22.6,29.7,21.2C29.7,21.2,29.7,21.2,29.7,21.2z M23.2,28.4
	c0.1,0.4,0.1,0.8,0,1.2l0,0.1c-0.1,0.2-0.2,0.5-0.4,0.7c-0.5,0.5-1.1,0.7-1.4,0.5c-0.3-0.2-0.1-0.9,0.4-1.4
	C22.3,28.8,23.1,28.4,23.2,28.4L23.2,28.4L23.2,28.4z"/>
</svg>
