 
<!-- Generator: Adobe Illustrator 26.0.1, SVG Export Plug-In . SVG Version: 6.00 Build 0)  -->
<svg version="1.1" id="Layer_1" xmlns="http://www.w3.org/2000/svg"  x="0px" y="0px"
	 viewBox="0 0 48 52" style="enable-background:new 0 0 48 52;">
<!-- <style type="text/css">
	.st-td-0{fill:#425D8C;stroke:#98ACCF;}
	.st-td-1{fill:#FFFFFF; opacity:.5}
</style> -->
<g id="icn-TS">
	<rect x="16.4" y="15.7" class="icn-ds-shape" width="16" height="20"/>
	<path class="icn-ds-shape-b" d="M28,29.2l1.2-3.6c-0.4-0.5-1-0.8-1.7-0.8h-1.2c-0.2,0-0.3-0.1-0.3-0.3s0.1-0.4,0.3-0.4h3.4l0.6-1.8h-4
		c-1.2,0-2.2,1-2.2,2.2s1,2.2,2.2,2.2h1.2c0.2,0,0.3,0.2,0.3,0.3c0,0.2-0.1,0.3-0.3,0.3H23v1.9h4.5C27.7,29.2,27.9,29.2,28,29.2"/>
	<path class="icn-ds-shape-b" d="M24,22.2h-5.6V24h1.7v5.1H22V24h1.2C23.2,23.4,23.5,22.7,24,22.2"/>
</g>
</svg>
