<?xml version="1.0" encoding="UTF-8"?>
<svg id="Layer_1" data-name="Layer 1" xmlns="http://www.w3.org/2000/svg" viewBox="0 0 30.83 30.83">
  <defs>
    <style>
      .cls-1 {
        fill: #fff;
      }

      .cls-2 {
        fill: #4c88a2;
      }
    </style>
  </defs>
  <g>
    <rect class="cls-2" x="5.01" y="5.01" width="20.8" height="20.8"/>
    <path class="cls-1" d="m25.31,5.51v19.8H5.51V5.51h19.8m1-1H4.51v21.8h21.8V4.51h0Z"/>
  </g>
  <g>
    <rect class="cls-2" x="5.01" y="5.01" width="20.8" height="20.8" transform="translate(-6.38 15.41) rotate(-45)"/>
    <path class="cls-1" d="m15.41,1.41l14,14-14,14L1.41,15.41,15.41,1.41m0-1.41l-.71.71L.71,14.71l-.71.71.71.71,14,14,.71.71.71-.71,14-14,.71-.71-.71-.71L16.12.71l-.71-.71h0Z"/>
  </g>
</svg>